<svg xmlns="http://www.w3.org/2000/svg" viewBox="0 0 116.28 100.66"><defs><linearGradient id="a9061fd8d-3ef4-4f95-b086-ed61826d5f04" x1="35.58" y1="15.42" x2="97.56" y2="77.4" gradientUnits="userSpaceOnUse"><stop offset="0" stop-color="#ffb2c2"/><stop offset="1" stop-color="#f85e8a"/></linearGradient></defs><g style="isolation:isolate"><g><path d="M103.87 43.86C94.14 34 88 22.79 82.63 23.15c-4.06.26-7.34 8.85-11.77 8.67s-6.81-9.65-12.66-10-21.54 21.49-23.81 27.53c-3.18 8.49 5.4 14.78 12.22 9.47s11-11.51 13.63-11.51 5.05 9.91 9.82 9.91 9.56-8.49 12.13-9.2c5-1.4 14.08 10.44 15.67 19.91 2.14 12.6-12.74 26.39-42.75 25.25-23.91-.91-47.83-25.47-36.93-52.34S52.81-1.63 80.43.14s36.51 27.31 34.1 38c-2.32 10.4-7.48 8.95-10.66 5.72z" fill="url(#a9061fd8d-3ef4-4f95-b086-ed61826d5f04)"/><path d="M18.18 40.84A67.39 67.39 0 0 1 39.85 12c-15.33 2.3-28.62 9.87-31.91 21.84s.65 21.06 8.32 27.71a34.65 34.65 0 0 1 1.92-20.71z" fill="#f757af" style="mix-blend-mode:multiply"/><path d="M39.85 12a67.39 67.39 0 0 0-21.67 28.84 34.65 34.65 0 0 0-1.92 20.71c25.28 21.94 91.37 16.58 75-7.68-3.08-3.95-6.59-6.55-9.1-5.85s-7.35 9.2-12.13 9.2-7.16-9.91-9.82-9.91-6.82 6.2-13.63 11.51-15.4-1-12.22-9.47c2.27-6 18-27.88 23.81-27.53s8.24 9.83 12.66 10 7.71-8.41 11.77-8.67c2.07-.14 4.23 1.41 6.66 3.92C78.5 13.89 57.78 9.34 39.85 12z" fill="#f757af" style="mix-blend-mode:multiply"/><path d="M55.11 93.18A42.71 42.71 0 0 1 30 83.26c3.72 11.25 13.08 18.2 24.07 17.33 5.33-.43 10.7-3.74 15.78-8.15a78.08 78.08 0 0 1-14.74.74z" fill="#ab8eeb" style="mix-blend-mode:multiply"/><path d="M30 83.26a42.71 42.71 0 0 0 25.12 9.92 78.08 78.08 0 0 0 14.73-.74c13.94-12.12 25.64-32.56 28-24.51C96.27 58.46 87.22 46.62 82.19 48c-2.57.71-7.35 9.2-12.13 9.2s-7.16-9.91-9.82-9.91-6.82 6.2-13.63 11.51-15.4-1-12.22-9.47c.86-2.28 3.64-6.82 7.07-11.57C28.37 55 26.08 71.47 30 83.26z" fill="#ab8eeb" style="mix-blend-mode:multiply"/><path d="M111.38 20.37c1.82-4.33 2.2-8.24-1.61-11a10.73 10.73 0 0 0-8.63-1.75 36 36 0 0 1 10.24 12.75z" fill="#ffbd88" style="mix-blend-mode:multiply"/><path d="M111.38 20.37a36 36 0 0 0-10.24-12.72c-13.42 2.54-29 24.4-35.21 20.37 1.56 2 3.06 3.73 4.93 3.8 4.43.18 7.71-8.41 11.77-8.67C88 22.79 94.14 34 103.87 43.86c-3.8-6.31 4.22-15.61 7.51-23.49z" fill="#ffbd88" style="mix-blend-mode:multiply"/><path d="M101.67 55c-2.78 1.81 6.1 21.57 12.3 17.56s-9.53-19.4-12.3-17.56zM14.92 69.64c2 1.64-1.86 9.93-6.4 6.3s4.37-7.94 6.4-6.3z" fill="#f757af"/><path d="M108.78 51.91c-3.46 1.37 4.56 7.83 7 4.85s-4.78-5.76-7-4.85zM70.65 95.56c-.83 3.57 4.14 3.64 3.11.12-.58-2.01-2.64-2.1-3.11-.12z" fill="#ab8eeb" style="mix-blend-mode:multiply"/><path d="M12.6 65.21c-1.66 2.29-6.29 5.18-10 4.25-3.1-.79-5.6-9.18 5.75-7.76 6.47.82 5.04 2.41 4.25 3.51z" fill="#ffbd88" style="mix-blend-mode:multiply"/></g></g></svg>